<svg width="12" height="12" viewBox="0 0 12 12" fill="none" xmlns="http://www.w3.org/2000/svg">
<g clip-path="url(#clip0_1_284)">
<path d="M3.02003 3.886C1.79003 4.1645 1.17503 4.3035 1.02853 4.774C0.882526 5.244 1.30153 5.7345 2.14003 6.715L2.35703 6.9685C2.59503 7.247 2.71453 7.3865 2.76803 7.5585C2.82153 7.731 2.80353 7.917 2.76753 8.2885L2.73453 8.627C2.60803 9.9355 2.54453 10.5895 2.92753 10.88C3.31053 11.171 3.88653 10.9055 5.03753 10.3755L5.33603 10.2385C5.66303 10.0875 5.82653 10.0125 6.00003 10.0125C6.17353 10.0125 6.33703 10.0875 6.66453 10.2385L6.96203 10.3755C8.11353 10.9055 8.68953 11.1705 9.07203 10.8805C9.45553 10.5895 9.39203 9.9355 9.26553 8.627M9.86003 6.715C10.6985 5.735 11.1175 5.2445 10.9715 4.774C10.825 4.3035 10.21 4.164 8.98003 3.886L8.66203 3.814C8.31253 3.735 8.13803 3.6955 7.99753 3.589C7.85753 3.4825 7.76753 3.321 7.58753 2.998L7.42353 2.704C6.79003 1.568 6.47353 1 6.00003 1C5.52653 1 5.21003 1.568 4.57653 2.704" fill="white"/>
<path d="M3.02003 3.886C1.79003 4.1645 1.17503 4.3035 1.02853 4.774C0.882526 5.244 1.30153 5.7345 2.14003 6.715L2.35703 6.9685C2.59503 7.247 2.71453 7.3865 2.76803 7.5585C2.82153 7.731 2.80353 7.917 2.76753 8.2885L2.73453 8.627C2.60803 9.9355 2.54453 10.5895 2.92753 10.88C3.31053 11.171 3.88653 10.9055 5.03753 10.3755L5.33603 10.2385C5.66303 10.0875 5.82653 10.0125 6.00003 10.0125C6.17353 10.0125 6.33703 10.0875 6.66453 10.2385L6.96203 10.3755C8.11353 10.9055 8.68953 11.1705 9.07203 10.8805C9.45553 10.5895 9.39203 9.9355 9.26553 8.627M9.86003 6.715C10.6985 5.735 11.1175 5.2445 10.9715 4.774C10.825 4.3035 10.21 4.164 8.98003 3.886L8.66203 3.814C8.31253 3.735 8.13803 3.6955 7.99753 3.589C7.85753 3.4825 7.76753 3.321 7.58753 2.998L7.42353 2.704C6.79003 1.568 6.47353 1 6.00003 1C5.52653 1 5.21003 1.568 4.57653 2.704" stroke="white" stroke-width="0.75" stroke-linecap="round"/>
</g>
<defs>
<clipPath id="clip0_1_284">
<rect width="12" height="12" fill="white"/>
</clipPath>
</defs>
</svg>