<svg width="52" height="52" viewBox="0 0 52 52" fill="none" xmlns="http://www.w3.org/2000/svg">
<circle cx="26" cy="26" r="26" fill="black"/>
<path d="M25.6658 31.1454C26.7527 32.8564 26.6677 33.3808 25.7214 34.3271C24.5144 35.5341 24.3621 36.4775 25.6658 38.5282C25.7888 38.7187 26.0408 38.7743 26.2312 38.6542C26.4216 38.5312 26.4773 38.2792 26.3572 38.0888C25.2703 36.3779 25.3552 35.8534 26.3015 34.9072C27.5085 33.7001 27.6609 32.7568 26.3572 30.706C26.2341 30.5155 25.9822 30.4599 25.7917 30.58C25.6013 30.7001 25.5427 30.955 25.6658 31.1454ZM19.1033 31.1454C20.1902 32.8564 20.1052 33.3808 19.1589 34.3271C17.9519 35.5341 17.7996 36.4775 19.1033 38.5282C19.2263 38.7187 19.4783 38.7743 19.6687 38.6542C19.8591 38.5312 19.9148 38.2792 19.7947 38.0888C18.7078 36.3779 18.7927 35.8534 19.739 34.9072C20.946 33.7001 21.0984 32.7568 19.7947 30.706C19.6716 30.5155 19.4197 30.4599 19.2292 30.58C19.0388 30.7001 18.9832 30.955 19.1033 31.1454ZM32.2839 34.3271C31.0769 35.5341 30.9246 36.4775 32.2283 38.5282C32.3513 38.7187 32.6033 38.7743 32.7937 38.6542C32.9841 38.5312 33.0398 38.2792 32.9197 38.0888C31.8328 36.3779 31.9177 35.8534 32.864 34.9072C34.071 33.7001 34.2234 32.7568 32.9197 30.706C32.7966 30.5155 32.5447 30.4599 32.3542 30.58C32.1638 30.703 32.1082 30.955 32.2283 31.1454C33.3152 32.8564 33.2302 33.3808 32.2839 34.3271ZM12.8865 18.6239V25.1806C12.8865 26.9941 14.3542 28.4648 16.1677 28.4648H35.8552C37.6658 28.4648 39.1365 26.9941 39.1365 25.1806V18.6239C39.1365 16.8105 37.6687 15.3398 35.8552 15.3398H16.1677C14.3572 15.3398 12.8865 16.8105 12.8865 18.6239Z" fill="white"/>
<path d="M14.5271 18.624C14.5271 17.7188 15.2625 16.9805 16.1677 16.9805H35.8552C36.7605 16.9805 37.4958 17.7158 37.4958 18.624V25.1807C37.4958 26.086 36.7605 26.8242 35.8552 26.8242H16.1677C15.2625 26.8242 14.5271 26.0889 14.5271 25.1807V18.624Z" fill="white"/>
<path d="M22.7302 19.8515C22.7302 19.1748 23.2692 18.6211 23.9518 18.6211H26.4274C27.1071 18.6211 27.6491 19.1806 27.6491 19.8515C27.6491 20.5283 27.11 21.082 26.4274 21.082H23.9518C23.2751 21.082 22.7302 20.5224 22.7302 19.8515ZM17.8083 19.8515C17.8083 19.1718 18.3649 18.6211 19.0388 18.6211C19.7184 18.6211 20.2692 19.1777 20.2692 19.8515C20.2692 20.5312 19.7126 21.082 19.0388 21.082C18.3591 21.082 17.8083 20.5254 17.8083 19.8515ZM18.2184 23.5429H33.8044V22.7226H18.2184V23.5429ZM18.2184 25.1836H33.8044V24.3633H18.2184V25.1836Z" fill="white"/>
<path d="M23.5505 19.8515C23.5505 20.0712 23.7292 20.2617 23.9518 20.2617H26.4274C26.653 20.2617 26.8288 20.0771 26.8288 19.8515C26.8288 19.6318 26.6501 19.4414 26.4274 19.4414H23.9518C23.7263 19.4414 23.5505 19.6259 23.5505 19.8515ZM18.6286 19.8515C18.6286 20.0712 18.8132 20.2617 19.0388 20.2617C19.2585 20.2617 19.4489 20.0771 19.4489 19.8515C19.4489 19.6318 19.2643 19.4414 19.0388 19.4414C18.819 19.4414 18.6286 19.6259 18.6286 19.8515Z" fill="white"/>
</svg>
