<svg width="52" height="52" viewBox="0 0 52 52" fill="none" xmlns="http://www.w3.org/2000/svg">
<circle cx="26" cy="26" r="26" fill="black"/>
<g clip-path="url(#clip0_6_363)">
<path d="M30.9451 27.32C30.7668 27.1417 30.5299 27.0436 30.2778 27.0436C30.0257 27.0436 29.7888 27.1417 29.6105 27.32L28.7911 28.1394L27.5893 26.9376L31.2721 23.2551C31.8661 23.5105 32.5111 23.6456 33.1769 23.6456H33.177C34.468 23.6456 35.6811 23.142 36.5926 22.2278C37.8367 20.9798 38.3009 19.153 37.804 17.4602C37.7752 17.3617 37.6963 17.2858 37.5969 17.2605C37.4975 17.2351 37.392 17.2642 37.3196 17.3369L34.2822 20.3835C34.0999 20.3096 33.6406 20.0576 32.7907 19.2102C31.9409 18.3629 31.6872 17.9044 31.6126 17.7223L34.6498 14.6755C34.7223 14.6028 34.751 14.4973 34.7254 14.3979C34.6998 14.2985 34.6236 14.2199 34.525 14.1913C34.0872 14.0643 33.6335 14 33.1766 14C31.8855 14 30.6726 14.5034 29.7613 15.4177C28.331 16.8525 27.9943 18.9693 28.7469 20.7267L25.0626 24.411L21.2916 20.64C21.2883 20.6336 21.2861 20.627 21.2824 20.6206L19.5587 17.6656C19.5289 17.6146 19.4885 17.5708 19.44 17.5371L16.5323 15.5196C16.3715 15.408 16.1541 15.4277 16.0158 15.5659L14.7204 16.8614C14.582 16.9996 14.5626 17.2171 14.6741 17.3778L16.6915 20.2855C16.7252 20.334 16.769 20.3746 16.8201 20.4043L19.7752 22.128C19.7817 22.1318 19.7885 22.1346 19.7952 22.138L23.5653 25.9081L20.7283 28.7451C20.1342 28.4897 19.4893 28.3545 18.8235 28.3545C17.5323 28.3545 16.3193 28.8581 15.4078 29.7724C14.1637 31.0204 13.6995 32.8473 14.1965 34.5398C14.2254 34.6383 14.3042 34.7142 14.4036 34.7395C14.503 34.7648 14.6085 34.7358 14.681 34.6631L17.7184 31.6164C17.9007 31.6904 18.3598 31.9426 19.2097 32.7897C20.0597 33.6371 20.3134 34.0955 20.3879 34.2777L17.3507 37.3244C17.2782 37.3972 17.2495 37.5027 17.2751 37.6021C17.3007 37.7015 17.3768 37.78 17.4755 37.8086C17.9132 37.9356 18.3669 38 18.8239 38C20.1148 38 21.3278 37.4965 22.2391 36.5822C23.1486 35.6699 23.6484 34.458 23.6464 33.1697C23.6454 32.5058 23.5102 31.863 23.2555 31.2711L26.0921 28.4346L27.2938 29.6364L26.4745 30.4557C26.2963 30.6341 26.1981 30.871 26.1981 31.1231C26.1981 31.3752 26.2962 31.6121 26.4744 31.7904L32.2627 37.5785C32.4409 37.7567 32.6778 37.8549 32.9299 37.8549C33.1819 37.8549 33.4189 37.7567 33.5972 37.5785L36.733 34.4427C36.9113 34.2644 37.0095 34.0275 37.0095 33.7753C37.0095 33.5233 36.9114 33.2863 36.7331 33.1081L30.9451 27.32ZM32.9939 35.5196C32.7875 35.726 32.4532 35.726 32.247 35.5196L28.5336 31.8062C28.3273 31.6 28.3273 31.2657 28.5336 31.0593C28.7398 30.8531 29.0742 30.8531 29.2804 31.0595L32.9938 34.7728C33.2 34.979 33.2001 35.3134 32.9939 35.5196ZM34.6742 33.8392C34.468 34.0455 34.1335 34.0455 33.9273 33.8392L30.214 30.1258C30.0078 29.9196 30.0078 29.5852 30.214 29.379C30.4202 29.1728 30.7547 29.1728 30.9608 29.379L34.6742 33.0925C34.8804 33.2987 34.8804 33.6331 34.6742 33.8392Z" fill="white"/>
</g>
<defs>
<clipPath id="clip0_6_363">
<rect width="24" height="24" fill="white" transform="translate(14 14)"/>
</clipPath>
</defs>
</svg>
