<svg width="52" height="52" viewBox="0 0 52 52" fill="none" xmlns="http://www.w3.org/2000/svg">
<circle cx="26" cy="26" r="26" fill="black"/>
<path fill-rule="evenodd" clip-rule="evenodd" d="M21.9047 19.7302C21.9047 18.4033 20.5083 17.5403 19.3215 18.1337L17.2816 19.1537C16.6768 19.456 16.2949 20.0741 16.2949 20.7502V24.4546H16.0399C15.6174 24.4546 15.2749 24.7971 15.2749 25.2196V31.3394C15.2749 33.4519 16.9874 35.1643 19.0998 35.1643C21.2122 35.1643 22.9247 33.4519 22.9247 31.3394V25.2196C22.9247 24.7971 22.5822 24.4546 22.1597 24.4546H21.9047V19.7302ZM16.8049 25.9846H21.3947V31.3394C21.3947 32.6069 20.3672 33.6344 19.0998 33.6344C17.8323 33.6344 16.8049 32.6069 16.8049 31.3394V25.9846ZM20.3747 24.4546V19.7302C20.3747 19.5407 20.1753 19.4174 20.0057 19.5021L17.9658 20.5221C17.8794 20.5653 17.8248 20.6536 17.8248 20.7502V24.4546H20.3747Z" fill="white"/>
<path fill-rule="evenodd" clip-rule="evenodd" d="M30.8293 18.3348C27.3086 18.3348 24.4545 21.1889 24.4545 24.7096C24.4545 27.9714 26.9043 30.6611 30.0644 31.039V33.6343H27.7694C27.347 33.6343 27.0045 33.9768 27.0045 34.3993C27.0045 34.8219 27.347 35.1643 27.7694 35.1643H33.8892C34.3117 35.1643 34.6542 34.8219 34.6542 34.3993C34.6542 33.9768 34.3117 33.6343 33.8892 33.6343H31.5943V31.039C34.7544 30.6611 37.2041 27.9714 37.2041 24.7096C37.2041 21.1889 34.3501 18.3348 30.8293 18.3348ZM30.8293 29.5544C33.5051 29.5544 35.6742 27.3854 35.6742 24.7096C35.6742 22.0339 33.5051 19.8648 30.8293 19.8648C28.1535 19.8648 25.9845 22.0339 25.9845 24.7096C25.9845 27.3854 28.1535 29.5544 30.8293 29.5544Z" fill="white"/>
</svg>
