<svg width="52" height="52" viewBox="0 0 52 52" fill="none" xmlns="http://www.w3.org/2000/svg">
<circle cx="26" cy="26" r="26" fill="black"/>
<path fill-rule="evenodd" clip-rule="evenodd" d="M16.6776 16.295V36.1844C16.6776 36.8182 17.1913 37.3319 17.8251 37.3319C20.8115 37.3319 31.6681 37.3319 34.6546 37.3319C35.2884 37.3319 35.802 36.8182 35.802 36.1844V16.295C35.802 15.6612 35.2884 15.1476 34.6546 15.1476C31.6681 15.1476 20.8115 15.1476 17.8251 15.1476C17.1913 15.1476 16.6776 15.6612 16.6776 16.295ZM17.4426 28.1522V36.1844C17.4426 36.3955 17.6139 36.5669 17.8251 36.5669C20.8115 36.5669 31.6681 36.5669 34.6546 36.5669C34.8657 36.5669 35.0371 36.3955 35.0371 36.1844V28.1522H22.4149V29.4909C22.4149 29.702 22.2436 29.8734 22.0324 29.8734H20.5025C20.2914 29.8734 20.12 29.702 20.12 29.4909V28.1522H17.4426ZM30.4472 28.9171C28.5474 28.9171 27.0048 30.4597 27.0048 32.3595C27.0048 34.2593 28.5474 35.8019 30.4472 35.8019C32.347 35.8019 33.8896 34.2593 33.8896 32.3595C33.8896 30.4597 32.347 28.9171 30.4472 28.9171ZM30.4472 29.6821C31.9247 29.6821 33.1246 30.882 33.1246 32.3595C33.1246 33.8371 31.9247 35.0369 30.4472 35.0369C28.9696 35.0369 27.7698 33.8371 27.7698 32.3595C27.7698 30.882 28.9696 29.6821 30.4472 29.6821ZM31.0802 33.5793C31.1273 33.5265 31.1169 33.4439 31.0584 33.4045C30.8825 33.2863 30.6717 33.2094 30.4457 33.2094C30.2196 33.2094 30.0096 33.2863 29.8337 33.4037C29.7752 33.4431 29.7648 33.5257 29.8119 33.5785L30.3604 34.1897C30.4063 34.2402 30.4851 34.2402 30.5306 34.1897L31.0802 33.5793ZM30.4457 32.7011C30.8155 32.7011 31.1563 32.8235 31.431 33.0289C31.4795 33.0652 31.5461 33.061 31.5866 33.0163L31.7828 32.7979C31.8272 32.7485 31.8226 32.6705 31.7706 32.6299C31.4038 32.3454 30.9452 32.1637 30.4457 32.1637C29.9477 32.1637 29.4891 32.345 29.123 32.6288C29.0706 32.669 29.066 32.7474 29.11 32.7963L29.3062 33.0151C29.3464 33.0599 29.4133 33.0641 29.4615 33.0281C29.7361 32.8231 30.0766 32.7011 30.4457 32.7011ZM30.4457 31.6408C31.0879 31.6408 31.6761 31.8654 32.1405 32.2375C32.1879 32.2761 32.2564 32.2719 32.2973 32.2264L32.474 32.0298C32.518 31.9812 32.5134 31.904 32.4629 31.8627C31.9117 31.4121 31.211 31.1034 30.4457 31.1034C29.6815 31.1034 28.9819 31.411 28.4319 31.86C28.381 31.9017 28.3764 31.9786 28.4204 32.0275L28.5967 32.2241C28.6376 32.2696 28.7057 32.2739 28.7535 32.2356C29.2171 31.8642 29.8046 31.6408 30.4457 31.6408ZM20.885 29.1084V24.901H21.65V29.1084H20.885ZM35.0371 26.6222H22.4149V27.3872H35.0371V26.6222ZM20.12 27.3872V26.6222H17.4426V27.3872H20.12ZM35.0371 25.8572H25.4748V15.9125H34.6546C34.8657 15.9125 35.0371 16.0839 35.0371 16.295V25.8572ZM24.7099 15.9125H17.8251C17.6139 15.9125 17.4426 16.0839 17.4426 16.295V25.8572H20.12V24.5185C20.12 24.3074 20.2914 24.136 20.5025 24.136H22.0324C22.2436 24.136 22.4149 24.3074 22.4149 24.5185V25.8572H24.7099V15.9125ZM34.2721 17.825C34.2721 17.5205 34.1512 17.2287 33.9359 17.0137C33.7209 16.7984 33.4291 16.6775 33.1246 16.6775H27.3873C27.0828 16.6775 26.791 16.7984 26.576 17.0137C26.3607 17.2287 26.2398 17.5205 26.2398 17.825C26.2398 19.2907 26.2398 22.4791 26.2398 23.9448C26.2398 24.2492 26.3607 24.5411 26.576 24.756C26.791 24.9714 27.0828 25.0923 27.3873 25.0923H33.1246C33.4291 25.0923 33.7209 24.9714 33.9359 24.756C34.1512 24.5411 34.2721 24.2492 34.2721 23.9448V17.825ZM33.5071 17.825V23.9448C33.5071 24.0461 33.4669 24.1437 33.395 24.2152C33.3235 24.2871 33.226 24.3273 33.1246 24.3273H27.3873C27.2859 24.3273 27.1884 24.2871 27.1169 24.2152C27.045 24.1437 27.0048 24.0461 27.0048 23.9448V17.825C27.0048 17.7236 27.045 17.6261 27.1169 17.5546C27.1884 17.4826 27.2859 17.4425 27.3873 17.4425H33.1246C33.226 17.4425 33.3235 17.4826 33.395 17.5546C33.4669 17.6261 33.5071 17.7236 33.5071 17.825Z" fill="white"/>
</svg>