<svg width="52" height="52" viewBox="0 0 52 52" fill="none" xmlns="http://www.w3.org/2000/svg">
<circle cx="26" cy="26" r="26" fill="black"/>
<path d="M34.25 14.75H17.75C16.9216 14.75 16.25 15.4216 16.25 16.25V35.75C16.25 36.5784 16.9216 37.25 17.75 37.25H34.25C35.0784 37.25 35.75 36.5784 35.75 35.75V16.25C35.75 15.4216 35.0784 14.75 34.25 14.75Z" stroke="white" stroke-width="1.5" stroke-linecap="round" stroke-linejoin="round"/>
<path d="M19.25 17.75H22.25" stroke="white" stroke-width="1.5" stroke-linecap="round" stroke-linejoin="round"/>
<path d="M33 17.2V18.2" stroke="white" stroke-width="1.5" stroke-linecap="round" stroke-linejoin="round"/>
<path d="M30 17.2V18.2" stroke="white" stroke-width="1.5" stroke-linecap="round" stroke-linejoin="round"/>
<path d="M16.25 20.75H35.75" stroke="white" stroke-width="1.5" stroke-linecap="round" stroke-linejoin="round"/>
<path d="M26 34.25C28.8995 34.25 31.25 31.8995 31.25 29C31.25 26.1005 28.8995 23.75 26 23.75C23.1005 23.75 20.75 26.1005 20.75 29C20.75 31.8995 23.1005 34.25 26 34.25Z" stroke="white" stroke-width="1.5" stroke-linecap="round" stroke-linejoin="round"/>
<path d="M23.75 29C23.75 28.4033 23.9871 27.831 24.409 27.409C24.818 27 25.3683 26.7647 25.9451 26.7507" stroke="white" stroke-width="1.5" stroke-linecap="round" stroke-linejoin="round"/>
</svg>
