<svg width="52" height="52" viewBox="0 0 52 52" fill="none" xmlns="http://www.w3.org/2000/svg">
<circle cx="26" cy="26" r="26" fill="black"/>
<g clip-path="url(#clip0_6_370)">
<path d="M38.4557 32.6504C38.3623 32.3248 38.022 32.1425 37.6993 32.2298L33.6876 33.3763L30.2511 31.0854C30.1507 31.0185 30.0324 30.9826 29.9116 30.9826H15.836C15.4978 30.9826 15.2241 31.2564 15.2241 31.5946C15.2241 31.9328 15.4978 32.2066 15.836 32.2066H29.726L33.2437 34.5517C33.3452 34.6194 33.4635 34.6545 33.5831 34.6545C33.6394 34.6545 33.6961 34.6467 33.7512 34.6312L38.0351 33.4073C38.3603 33.3138 38.5483 32.9752 38.4557 32.6504Z" fill="white"/>
<path d="M34.1952 26.0867C32.5082 26.0867 31.1353 27.4591 31.1353 29.1466C31.1353 30.8336 32.5082 32.2065 34.1952 32.2065C35.8826 32.2065 37.2551 30.8336 37.2551 29.1466C37.2551 27.4592 35.8826 26.0867 34.1952 26.0867ZM34.1952 30.9825C33.1814 30.9825 32.3592 30.1604 32.3592 29.1466C32.3592 28.1327 33.1814 27.3106 34.1952 27.3106C35.209 27.3106 36.0311 28.1327 36.0311 29.1466C36.0312 30.1605 35.2091 30.9825 34.1952 30.9825Z" fill="white"/>
<path d="M24.4039 17.8249C22.7169 17.8249 21.344 19.1974 21.344 20.8848C21.344 22.5723 22.7165 23.9447 24.4039 23.9447C26.0914 23.9447 27.4639 22.5718 27.4639 20.8848C27.4639 19.1974 26.0914 17.8249 24.4039 17.8249ZM24.4039 22.7208C23.3901 22.7208 22.568 21.8987 22.568 20.8848C22.568 19.871 23.3897 19.0489 24.4039 19.0489C25.4178 19.0489 26.2399 19.871 26.2399 20.8848C26.2399 21.8987 25.4178 22.7208 24.4039 22.7208Z" fill="white"/>
<path d="M27.7783 27.398L21.6585 23.7261C21.512 23.6388 21.3354 23.6139 21.1726 23.6633C21.0089 23.711 20.8727 23.8248 20.796 23.977L18.3481 28.8729C18.1971 29.1752 18.3199 29.5428 18.6222 29.6942C18.7099 29.7378 18.8034 29.7586 18.8952 29.7586C19.12 29.7586 19.3358 29.635 19.4431 29.4204L21.5952 25.1157L27.1483 28.4474C27.4388 28.6212 27.8141 28.5274 27.988 28.2377C28.1618 27.948 28.068 27.5718 27.7783 27.398Z" fill="white"/>
<path d="M29.9117 33.4304H14.6121C14.2739 33.4304 14.0002 33.7042 14.0002 34.0424C14.0002 34.3806 14.2739 34.6544 14.6121 34.6544H29.9117C30.2499 34.6544 30.5237 34.3806 30.5237 34.0424C30.5237 33.7042 30.2499 33.4304 29.9117 33.4304Z" fill="white"/>
</g>
<defs>
<clipPath id="clip0_6_370">
<rect width="24.4793" height="24.4793" fill="white" transform="translate(14 14)"/>
</clipPath>
</defs>
</svg>
