<svg width="52" height="52" viewBox="0 0 52 52" fill="none" xmlns="http://www.w3.org/2000/svg">
<circle cx="26" cy="26" r="26" fill="black"/>
<g clip-path="url(#clip0_6_365)">
<path d="M20.5454 32.5454C20.8467 32.5454 21.0909 32.3012 21.0909 32C21.0909 31.6988 20.8467 31.4546 20.5454 31.4546C20.2442 31.4546 20 31.6988 20 32C20 32.3012 20.2442 32.5454 20.5454 32.5454Z" fill="white"/>
<path d="M33.0909 32.5454C33.3922 32.5454 33.6364 32.3012 33.6364 32C33.6364 31.6988 33.3922 31.4546 33.0909 31.4546C32.7897 31.4546 32.5455 31.6988 32.5455 32C32.5455 32.3012 32.7897 32.5454 33.0909 32.5454Z" fill="white"/>
<path d="M37.3454 26.3273L35.7091 25.1273L34.1273 20.3818C34.0727 20.1636 33.8546 20 33.6364 20H28.7273C28.4 20 28.1818 20.2183 28.1818 20.5455V31.4546H23.2182C22.9455 30.2 21.8546 29.2728 20.5455 29.2728C19.2364 29.2728 18.1455 30.2 17.8728 31.4546H15.6364C15.3091 31.4546 15.0909 31.2364 15.0909 30.9091V18.9091C15.0909 18.5818 15.3091 18.3637 15.6364 18.3637H28.1818C28.1818 18.691 28.4 18.9091 28.7272 18.9091C29.0545 18.9091 29.2727 18.6909 29.2727 18.3637V17.8182C29.2727 17.4909 29.0545 17.2728 28.7272 17.2728H15.6364C14.7091 17.2727 14 17.9818 14 18.9091V30.9091C14 31.8364 14.7091 32.5454 15.6364 32.5454H17.8727C18.1454 33.8 19.2364 34.7272 20.5454 34.7272C21.8545 34.7272 22.9454 33.8 23.2182 32.5454H28.7272C29.0545 32.5454 29.2727 32.3272 29.2727 32V21.0909H33.2545L34.509 24.9091H33.4181L33.5817 24.5818C33.6908 24.3091 33.5817 23.9818 33.3635 23.8728C33.1453 23.7637 32.7635 23.8728 32.6545 24.091L32.2181 24.9092H30.909C30.5818 24.9092 30.3636 25.1274 30.3636 25.4546C30.3636 25.7818 30.5818 26 30.9091 26H35.1091L36.6909 27.2C36.8 27.3091 36.9091 27.4727 36.9091 27.6364V30.9091C36.9091 31.2364 36.6909 31.4545 36.3636 31.4545H35.7636C35.4909 30.2 34.4 29.2727 33.0909 29.2727C31.5636 29.2727 30.3636 30.4727 30.3636 32C30.3636 33.5273 31.5636 34.7273 33.0909 34.7273C34.4 34.7273 35.4909 33.8 35.7636 32.5455H36.3636C37.2909 32.5455 38 31.8364 38 30.9091V27.6364C38 27.1454 37.7818 26.6546 37.3454 26.3273ZM20.5454 33.6364C19.6182 33.6364 18.9091 32.9273 18.9091 32C18.9091 31.0727 19.6182 30.3636 20.5454 30.3636C21.4727 30.3636 22.1818 31.0727 22.1818 32C22.1818 32.9273 21.4727 33.6364 20.5454 33.6364ZM33.0909 33.6364C32.1636 33.6364 31.4546 32.9273 31.4546 32C31.4546 31.0727 32.1636 30.3636 33.0909 30.3636C34.0182 30.3636 34.7273 31.0727 34.7273 32C34.7273 32.9273 34.0182 33.6364 33.0909 33.6364Z" fill="white"/>
<path d="M25.7818 23.9273L22.5091 21.2C22.3454 21.0909 22.1273 21.0364 21.9091 21.1454C21.7454 21.2545 21.6364 21.4182 21.6364 21.6364V22.7273H17.8182C17.4909 22.7273 17.2728 22.9455 17.2728 23.2727C17.2728 23.6 17.491 23.8182 17.8182 23.8182H22.1818C22.5091 23.8182 22.7273 23.6 22.7273 23.2727V22.7818L24.5818 24.3636L22.7273 25.9454V25.4545C22.7273 25.1272 22.5091 24.909 22.1818 24.909H17.8182C17.4909 24.909 17.2728 25.1272 17.2728 25.4545C17.2728 25.7817 17.4909 26 17.8182 26H21.6364V27.0909C21.6364 27.3091 21.7455 27.4728 21.9637 27.5819C22.0183 27.6364 22.1273 27.6364 22.1819 27.6364C22.291 27.6364 22.4546 27.5819 22.5092 27.5273L25.7819 24.8001C25.891 24.691 26.0001 24.5273 26.0001 24.3637C26 24.2 25.9454 24.0364 25.7818 23.9273Z" fill="white"/>
</g>
<defs>
<clipPath id="clip0_6_365">
<rect width="24" height="24" fill="white" transform="translate(14 14)"/>
</clipPath>
</defs>
</svg>