<svg width="52" height="52" viewBox="0 0 52 52" fill="none" xmlns="http://www.w3.org/2000/svg">
<circle cx="26" cy="26" r="26" fill="black"/>
<g clip-path="url(#clip0_6_361)">
<path d="M33.4564 15.8641L33.9224 15.8641L33.9224 17.9537L24.8979 21.488C24.7195 21.5583 24.602 21.7304 24.602 21.9223L24.602 23.9649C24.7311 23.9192 24.8704 23.8927 25.0191 23.8927C25.2055 23.8927 25.3794 23.9332 25.534 24.0031L25.534 22.2402L34.5585 18.7059C34.737 18.636 34.8544 18.4636 34.8544 18.272L34.8544 15.3981C34.8544 15.1409 34.6457 14.9321 34.3884 14.9321L33.4564 14.9321L33.4564 15.8641Z" fill="white"/>
<path d="M25.5341 24.5647C25.3915 24.423 25.1953 24.3582 25.0191 24.3582C24.8584 24.3582 24.72 24.4053 24.602 24.4826C24.466 24.5721 24.3573 24.7031 24.2847 24.8695C23.6071 26.4264 23.204 34.7015 23.204 35.7282L23.204 35.868C23.204 36.4384 23.1387 37.0853 23.5595 37.5084C23.8839 37.8345 24.3877 38 25.1725 38C25.8002 38 26.2872 37.822 26.619 37.4706C27.1749 36.8829 27.133 36.0021 27.1325 35.9933C27.0911 30.9035 25.7112 24.889 25.6972 24.8289C25.6646 24.7161 25.604 24.6341 25.5341 24.5647Z" fill="white"/>
<path d="M18.0778 17.2621L32.2913 17.2621C32.6767 17.2621 32.9904 16.9485 32.9904 16.5631L32.9904 15.8641L32.9904 14.932L32.9904 14.699C32.9904 14.3136 32.6767 14 32.2913 14L17.8447 14C17.4593 14 17.1457 14.3136 17.1457 14.699L17.1457 16.3301C17.1457 16.845 17.5629 17.2621 18.0778 17.2621Z" fill="white"/>
</g>
<defs>
<clipPath id="clip0_6_361">
<rect width="24" height="24" fill="white" transform="translate(38 38) rotate(-180)"/>
</clipPath>
</defs>
</svg>
