<svg width="52" height="52" viewBox="0 0 52 52" fill="none" xmlns="http://www.w3.org/2000/svg">
<circle cx="26" cy="26" r="26" fill="black"/>
<g clip-path="url(#clip0_6_364)">
<path d="M37.3291 15.4907H37.0061V14.3727C37.0061 14.1668 36.8393 14 36.6335 14H33.7515C33.5456 14 33.3789 14.1669 33.3789 14.3727V15.4907H32.9565C32.7506 15.4907 32.5839 15.6575 32.5839 15.8633V17.0559C32.5839 17.2617 32.7507 17.4285 32.9565 17.4285H33.3789V18.5465C33.3789 18.7524 33.5457 18.9192 33.7515 18.9192C33.9574 18.9192 34.1242 18.7523 34.1242 18.5465V17.4286H36.2608V22.8199C36.2608 25.0803 34.4218 26.9192 32.1615 26.9192H29.354V24.6832H32.2608C33.2883 24.6832 34.1242 23.8473 34.1242 22.8198V20.5341C34.1242 20.3283 33.9574 20.1614 33.7516 20.1614C33.5457 20.1614 33.3789 20.3283 33.3789 20.5341V22.8198C33.3789 23.4363 32.8773 23.9378 32.2609 23.9378H29.3541V23.4161C29.3541 23.2103 29.1873 23.0435 28.9814 23.0435H27.7889C27.583 23.0435 27.4162 23.2103 27.4162 23.4161V23.9378H26.5713V21.3043H26.9712C27.1339 21.8771 27.6614 22.2981 28.2856 22.2981C29.039 22.2981 29.6521 21.6851 29.6521 20.9316C29.6521 20.1782 29.039 19.5652 28.2856 19.5652C27.6614 19.5652 27.1339 19.9862 26.9712 20.559H25.4261C25.2634 19.9862 24.736 19.5652 24.1117 19.5652C23.3583 19.5652 22.7453 20.1782 22.7453 20.9316C22.7453 21.6851 23.3583 22.2981 24.1117 22.2981C24.736 22.2981 25.2634 21.8771 25.4261 21.3043H25.826V23.9378H24.9813V23.4161C24.9813 23.2103 24.8144 23.0435 24.6086 23.0435H23.416C23.2102 23.0435 23.0434 23.2103 23.0434 23.4161V23.9378H19.9378C17.2664 23.9378 15.0931 26.1111 15.0931 28.7825V30.472C15.0931 30.6778 15.2599 30.8446 15.4657 30.8446C15.6716 30.8446 15.8384 30.6778 15.8384 30.472V28.7825C15.8384 26.5221 17.6774 24.6832 19.9377 24.6832H23.0433V26.9192H19.8384C18.8109 26.9192 17.975 27.7551 17.975 28.7826V34.472H15.8385V32.4596C15.8385 32.2538 15.6716 32.087 15.4658 32.087C15.2599 32.087 15.0932 32.2538 15.0932 32.4596V34.472H14.6708C14.4649 34.472 14.2982 34.6389 14.2982 34.8447V36.0373C14.2982 36.2431 14.465 36.4099 14.6708 36.4099H15.0932V37.5279C15.0932 37.7338 15.26 37.9006 15.4658 37.9006H18.3478C18.5537 37.9006 18.7204 37.7337 18.7204 37.5279V36.4099H19.0434C19.2493 36.4099 19.4161 36.243 19.4161 36.0373V34.8447C19.4161 34.6389 19.2492 34.472 19.0434 34.472H18.7204V28.7826C18.7204 28.1661 19.222 27.6646 19.8385 27.6646H23.0434V28.1863C23.0434 28.3921 23.2103 28.559 23.4161 28.559H24.6086C24.8145 28.559 24.9813 28.3921 24.9813 28.1863V27.6646H27.4161V28.1863C27.4161 28.3921 27.5829 28.559 27.7887 28.559H28.9813C29.1872 28.559 29.3539 28.3921 29.3539 28.1863V27.6646H32.1614C34.8328 27.6646 37.0061 25.4913 37.0061 22.8199V17.4286H37.3291C37.5349 17.4286 37.7017 17.2617 37.7017 17.0559V15.8634C37.7018 15.6575 37.535 15.4907 37.3291 15.4907ZM28.2857 20.3105C28.6282 20.3105 28.9068 20.5892 28.9068 20.9317C28.9068 21.2742 28.6282 21.5528 28.2857 21.5528C27.9431 21.5528 27.6646 21.2742 27.6646 20.9317C27.6646 20.5892 27.9431 20.3105 28.2857 20.3105ZM24.1117 21.5528C23.7692 21.5528 23.4906 21.2742 23.4906 20.9317C23.4906 20.5892 23.7692 20.3105 24.1117 20.3105C24.4542 20.3105 24.7328 20.5892 24.7328 20.9317C24.7328 21.2742 24.4542 21.5528 24.1117 21.5528ZM17.9751 37.1553H15.8385V36.4099H17.9751L17.9751 37.1553ZM18.6708 35.6646H15.0434V35.2174H18.6708V35.6646ZM24.236 27.8137H23.7888V23.7889H24.236V27.8137ZM27.4161 26.9193H24.9813V24.6832H27.4161V26.9193ZM28.6086 27.8137H28.1614V23.7889H28.6086V27.8137ZM34.1242 14.7454H36.2608V15.4907H34.1242V14.7454ZM36.9565 16.6832H33.3291V16.236H36.9565V16.6832Z" fill="white"/>
<path d="M28.1392 31.4761C28.035 31.2986 27.8067 31.2391 27.6292 31.3432C27.4517 31.4474 27.3922 31.6757 27.4963 31.8532C28.5507 33.6504 28.7081 34.4367 28.7081 34.7453C28.7081 36.129 27.5824 37.2546 26.1988 37.2546C24.8151 37.2546 23.6895 36.129 23.6895 34.7453C23.6895 33.6736 25.2926 31.1351 26.1979 29.8268C26.3303 30.0185 26.4976 30.2651 26.6823 30.5466C26.7951 30.7187 27.0262 30.7667 27.1983 30.6538C27.3704 30.541 27.4184 30.3099 27.3055 30.1378C26.8552 29.4512 26.5147 28.981 26.5004 28.9613C26.3541 28.7595 26.0434 28.7595 25.8971 28.9613C25.5949 29.378 22.9441 33.0808 22.9441 34.7453C22.9441 36.54 24.4041 38 26.1988 38C27.9934 38 29.4535 36.54 29.4535 34.7453C29.4535 34.0529 29.0236 32.9835 28.1392 31.4761Z" fill="white"/>
<path d="M27.1105 32.0796C27.0063 31.902 26.7781 31.8426 26.6005 31.9467C26.423 32.0508 26.3635 32.2792 26.4676 32.4567C27.4784 34.1797 27.5145 34.7274 27.5154 34.7453C27.5154 35.4713 26.9247 36.062 26.1987 36.062C25.9928 36.062 25.826 36.2289 25.826 36.4347C25.826 36.6405 25.9928 36.8073 26.1987 36.8073C27.3357 36.8073 28.2608 35.8823 28.2608 34.7452C28.2608 34.5799 28.1779 33.8989 27.1105 32.0796Z" fill="white"/>
</g>
<defs>
<clipPath id="clip0_6_364">
<rect width="24" height="24" fill="white" transform="translate(14 14)"/>
</clipPath>
</defs>
</svg>