<svg width="52" height="52" viewBox="0 0 52 52" fill="none" xmlns="http://www.w3.org/2000/svg">
<circle cx="26" cy="26" r="26" fill="black"/>
<g clip-path="url(#clip0_6_360)">
<path d="M32.275 26.4679C33.8051 26.4679 35.2437 25.8708 36.3266 24.7879C38.0109 23.1041 38.4757 20.5129 37.4825 18.3391C37.3402 18.0317 37.0566 17.8116 36.7165 17.7495C36.6572 17.7395 36.5979 17.7348 36.5386 17.7348C36.2616 17.7348 36.0008 17.8425 35.8034 18.0388L34.1182 19.7255L33.3318 19.6648L33.2711 18.8784L34.9554 17.1926C35.1968 16.9541 35.3045 16.6097 35.2442 16.272C35.1835 15.9371 34.9625 15.653 34.6537 15.5121C33.9081 15.1711 33.0809 14.9913 32.2598 14.9913C30.7297 14.9913 29.2906 15.5871 28.2072 16.669C26.6984 18.1787 26.1572 20.3416 26.7663 22.3646L26.0102 23.1207L18.1811 15.2925C17.8462 14.9577 17.2538 14.9577 16.919 15.2925L14.2614 17.9506C13.9132 18.2992 13.9132 18.8641 14.2614 19.2128L22.0895 27.0414L16.7036 32.4263C15.7815 33.3493 15.7744 34.842 16.6865 35.7565L17.2391 36.3095C17.6783 36.7488 18.2646 36.9907 18.8888 36.9907C19.522 36.9907 20.1187 36.7435 20.5688 36.2939L27.4896 29.3726L35.4596 36.7469C35.6341 36.9209 35.8623 37.0087 36.0909 37.0087C36.319 37.0087 36.5476 36.9209 36.7222 36.7469C37.0703 36.3987 37.0703 35.8333 36.7222 35.4852L28.7518 28.1095L30.6324 26.2289C31.1641 26.3873 31.7148 26.4679 32.275 26.4679ZM16.1548 18.5814L17.5503 17.186L24.7476 24.3838L23.3521 25.7792L16.1548 18.5814ZM29.6321 24.2913L24.011 29.9124H24.0062L19.0966 34.8216C19.0382 34.879 18.9656 34.9103 18.886 34.9103C18.8167 34.9103 18.7555 34.8852 18.709 34.8401L18.1565 34.2875C18.0545 34.1851 18.064 34.0115 18.1754 33.8991L22.9746 29.1004L23.0841 28.988L28.7076 23.363C29.0112 23.0562 29.0947 22.6037 28.9206 22.2109C28.3035 20.8136 28.6005 19.2151 29.6772 18.1394C30.3384 17.4777 31.2087 17.1016 32.1393 17.0717L31.4653 17.7457C31.249 17.961 31.139 18.258 31.1618 18.5625L31.3278 20.7126C31.3676 21.2253 31.7689 21.628 32.2845 21.6693L34.426 21.8338C34.4554 21.8367 34.4848 21.8381 34.5147 21.8381C34.7875 21.8381 35.0554 21.7271 35.2504 21.5326L35.923 20.8596C35.8921 21.7788 35.5174 22.661 34.8586 23.3194C34.1689 24.01 33.2507 24.3899 32.2755 24.3899C31.758 24.3895 31.2576 24.2837 30.7894 24.0769C30.6557 24.0181 30.5139 23.9877 30.3673 23.9877C30.0889 23.9868 29.8275 24.0954 29.6321 24.2913Z" fill="white"/>
</g>
<defs>
<clipPath id="clip0_6_360">
<rect width="24" height="24" fill="white" transform="translate(14 14)"/>
</clipPath>
</defs>
</svg>