<svg width="52" height="52" viewBox="0 0 52 52" fill="none" xmlns="http://www.w3.org/2000/svg">
<circle cx="26" cy="26" r="26" fill="black"/>
<path d="M29.1001 13.9914C28.9143 13.9914 28.7641 14.1415 28.7641 14.3267C28.7641 14.5125 28.9143 14.6634 29.1001 14.6634H31.3864V15.3265H29.1001C28.9143 15.3265 28.7641 15.4767 28.7641 15.6626C28.7641 15.8484 28.9143 15.9993 29.1001 15.9993H31.3864V16.6624H29.1001C28.9143 16.6624 28.7641 16.8126 28.7641 16.9977C28.7641 17.1836 28.9143 17.3337 29.1001 17.3337H31.3864V17.9969H29.1001C28.9143 17.9969 28.7641 18.1477 28.7641 18.3329C28.7641 18.5194 28.9143 18.6696 29.1001 18.6696H31.3864V19.3327H29.1001C28.9143 19.3327 28.7641 19.4829 28.7641 19.6688C28.7641 19.8546 28.9143 20.0048 29.1001 20.0048H31.3864V20.6679H29.1001C28.9143 20.6679 28.7641 20.8181 28.7641 21.0039C28.7641 21.1898 28.9143 21.3406 29.1001 21.3406H31.3864V22.0038H29.1001C28.9143 22.0038 28.7641 22.1539 28.7641 22.3391C28.7641 22.5256 28.9143 22.6758 29.1001 22.6758H31.3864V23.3389H29.1001C28.9143 23.3389 28.7641 23.4891 28.7641 23.6749C28.7641 23.8608 28.9143 24.011 29.1001 24.011H31.3864V24.6741H29.1001C28.9143 24.6741 28.7641 24.825 28.7641 25.0108C28.7641 25.1966 28.9143 25.3468 29.1001 25.3468H31.3864V26.0093H29.1001C28.9143 26.0093 28.7641 26.1608 28.7641 26.3467C28.7641 26.5318 28.9143 26.682 29.1001 26.682H29.5267C30.5532 26.682 31.3995 27.448 31.527 28.4403L32.1929 36.4479H33V14.6689C33 14.2979 32.699 13.9968 32.3273 13.9968L29.1001 13.9914Z" fill="white"/>
<path d="M26.5659 35.3266C26.1524 35.3266 25.7636 35.1641 25.4721 34.872C25.1793 34.5805 25.0195 34.1924 25.0195 33.7789C25.0195 33.3661 25.1793 32.9772 25.4721 32.6858C25.7636 32.3937 26.1524 32.2332 26.5659 32.2332C26.9787 32.2332 27.3669 32.3937 27.659 32.6858C27.9511 32.9772 28.1116 33.3661 28.1116 33.7789C28.1116 34.632 27.4183 35.3266 26.5659 35.3266ZM28.1802 36.4403C27.995 36.2559 27.8627 36.0323 27.7914 35.7882C28.4675 35.3747 28.9187 34.6292 28.9187 33.7789C28.9187 32.4801 27.8647 31.4261 26.5659 31.4261C26.4253 31.4261 26.2882 31.4384 26.1551 31.4624L24.8159 27.7209C24.7075 27.4178 24.6417 27.0948 24.6245 26.7595L24.1966 14.0174C23.9532 13.9139 23.6857 13.8563 23.4052 13.8563C23.1268 13.8563 22.8608 13.9132 22.6201 14.0154L22.1949 26.7272C22.8971 26.839 23.4786 27.3143 23.7406 27.9541L25.1752 31.8807C24.5916 32.3093 24.2117 32.9992 24.2117 33.7789C24.2117 35.0791 25.2657 36.1317 26.5659 36.1317C26.7277 36.1317 26.8855 36.1153 27.0391 36.0844C27.3484 37.0232 28.2316 37.7001 29.2733 37.7001V36.8929C28.8605 36.8929 28.4723 36.7325 28.1802 36.4403Z" fill="white"/>
</svg>