<svg width="52" height="52" viewBox="0 0 52 52" fill="none" xmlns="http://www.w3.org/2000/svg">
<circle cx="26" cy="26" r="26" fill="black"/>
<g clip-path="url(#clip0_6_368)">
<path d="M36.4428 27.7187L30.5277 25.5934L28.0557 22.4887C27.8406 22.2258 27.5698 22.0142 27.2628 21.8691C26.9558 21.7239 26.6203 21.649 26.2807 21.6497H20.1639C19.7898 21.6496 19.4214 21.7409 19.0907 21.9158C18.76 22.0906 18.4772 22.3437 18.2667 22.653L16.1926 25.7002C15.7604 26.3344 15.5294 27.0842 15.5299 27.8517V33.8893C15.5299 34.0922 15.6105 34.2868 15.754 34.4303C15.8975 34.5737 16.092 34.6543 16.2949 34.6543H17.9336C18.1004 35.3105 18.4811 35.8923 19.0156 36.3079C19.55 36.7235 20.2077 36.9492 20.8848 36.9492C21.5618 36.9492 22.2195 36.7235 22.754 36.3079C23.2885 35.8923 23.6692 35.3105 23.836 34.6543H28.6432C28.81 35.3105 29.1908 35.8923 29.7252 36.3079C30.2597 36.7235 30.9174 36.9492 31.5945 36.9492C32.2715 36.9492 32.9292 36.7235 33.4637 36.3079C33.9981 35.8923 34.3789 35.3105 34.5457 34.6543H36.1843C36.3872 34.6543 36.5818 34.5737 36.7252 34.4303C36.8687 34.2868 36.9493 34.0922 36.9493 33.8893V28.4389C36.9493 28.2813 36.9007 28.1275 36.81 27.9986C36.7194 27.8697 36.5911 27.772 36.4428 27.7187ZM20.8848 35.4193C20.5822 35.4193 20.2864 35.3296 20.0348 35.1614C19.7832 34.9933 19.5871 34.7544 19.4713 34.4748C19.3555 34.1953 19.3252 33.8876 19.3842 33.5909C19.4433 33.2941 19.589 33.0215 19.8029 32.8075C20.0169 32.5935 20.2895 32.4478 20.5863 32.3888C20.8831 32.3297 21.1907 32.36 21.4703 32.4758C21.7498 32.5916 21.9888 32.7877 22.1569 33.0393C22.325 33.2909 22.4147 33.5867 22.4147 33.8893C22.4142 34.2949 22.2528 34.6838 21.966 34.9706C21.6792 35.2574 21.2904 35.4187 20.8848 35.4193ZM31.5945 35.4193C31.2919 35.4193 30.9961 35.3296 30.7445 35.1614C30.4929 34.9933 30.2968 34.7544 30.181 34.4748C30.0652 34.1953 30.0349 33.8876 30.0939 33.5909C30.1529 33.2941 30.2986 33.0215 30.5126 32.8075C30.7266 32.5935 30.9992 32.4478 31.296 32.3888C31.5928 32.3297 31.9004 32.36 32.1799 32.4758C32.4595 32.5916 32.6984 32.7877 32.8666 33.0393C33.0347 33.2909 33.1244 33.5867 33.1244 33.8893C33.1239 34.295 32.9625 34.6838 32.6757 34.9706C32.3889 35.2574 32.0001 35.4188 31.5945 35.4193ZM35.4193 33.1244H34.5457C34.3789 32.4682 33.9981 31.8863 33.4637 31.4707C32.9292 31.0551 32.2715 30.8295 31.5945 30.8295C30.9174 30.8295 30.2597 31.0551 29.7252 31.4707C29.1908 31.8863 28.81 32.4682 28.6432 33.1244H23.836C23.6692 32.4682 23.2885 31.8863 22.754 31.4707C22.2195 31.0551 21.5618 30.8295 20.8848 30.8295C20.2077 30.8295 19.55 31.0551 19.0156 31.4707C18.4811 31.8863 18.1004 32.4682 17.9336 33.1244H17.0599V27.8517C17.0597 27.3909 17.1983 26.9408 17.4577 26.56L19.5315 23.5143C19.6016 23.4112 19.6959 23.3268 19.8061 23.2685C19.9163 23.2101 20.0392 23.1796 20.1639 23.1797H26.2807C26.3921 23.1792 26.5023 23.2032 26.6034 23.2501C26.7045 23.297 26.794 23.3655 26.8657 23.4508L29.4661 26.7161C29.5546 26.8273 29.6723 26.9116 29.806 26.9597L35.4193 28.9767V33.1244Z" fill="white"/>
<path d="M32.7837 18.5898C32.7837 18.1841 32.9449 17.7949 33.2319 17.508C33.5188 17.2211 33.9079 17.0599 34.3137 17.0599H36.9493C36.6481 16.534 36.1967 16.1101 35.653 15.8425C35.1093 15.5749 34.498 15.4759 33.8976 15.5581C33.2972 15.6403 32.735 15.9 32.2832 16.3039C31.8314 16.7077 31.5106 17.2374 31.3619 17.8249H26.2396V19.3548H31.3619C31.5106 19.9423 31.8314 20.4719 32.2832 20.8758C32.735 21.2797 33.2972 21.5394 33.8976 21.6216C34.498 21.7038 35.1093 21.6048 35.653 21.3372C36.1967 21.0696 36.6481 20.6457 36.9493 20.1198H34.3137C33.9079 20.1198 33.5188 19.9586 33.2319 19.6717C32.9449 19.3848 32.7837 18.9956 32.7837 18.5898Z" fill="white"/>
</g>
<defs>
<clipPath id="clip0_6_368">
<rect width="24.4793" height="24.4793" fill="white" transform="translate(14 14)"/>
</clipPath>
</defs>
</svg>